<svg width="185" height="54" viewBox="0 0 185 54" fill="none" xmlns="http://www.w3.org/2000/svg">
<path d="M114.094 17.6444C114.47 17.6113 114.859 17.5944 115.263 17.5938C117.646 17.5938 121.102 18.3177 123.682 19.2603L125.074 15.9721L130.476 3.18315C130.149 3.20703 127.983 3.36843 127.321 3.41618L126.373 3.4859C123.977 3.65781 120.695 3.88511 120.361 3.89848C119.61 3.38276 116.008 1.06965 115.424 0.734427C115.094 0.543418 114.102 0 114.102 0C114.102 0 113.11 0.545329 112.779 0.734427C112.196 1.06965 108.596 3.38276 107.842 3.89848C107.504 3.88511 104.222 3.65781 101.83 3.4859L100.882 3.41618C100.224 3.36843 98.0544 3.20703 97.7266 3.18315C98.2197 4.3292 99.4343 7.17714 100.243 9.07958L109.253 9.80541H109.294C109.294 9.80541 113.185 7.2459 114.105 6.6595C115.027 7.2459 118.918 9.80541 118.918 9.80541H118.959L118.995 9.82833L121.631 9.59817C121.325 10.3316 121.002 11.1033 120.692 11.8492C118.934 11.535 117.151 11.3797 115.366 11.385C114.939 11.385 114.52 11.3971 114.108 11.4213C109.476 11.6811 105.784 13.3763 103.132 15.9721C99.9378 19.098 98.247 23.5274 98.247 28.3237C98.247 36.4511 104.401 41.2903 112.846 41.2903C113.261 41.2903 113.68 41.2794 114.103 41.2578C116.942 41.1174 119.914 40.5176 122.22 39.6524L125.1 24.5321H112.028L110.86 30.2853H117.509L116.569 34.8963C115.764 35.1355 114.936 35.2879 114.099 35.3509C113.723 35.3824 113.347 35.3986 112.976 35.3986C107.99 35.3986 105.429 32.3855 105.474 27.8652C105.468 26.7413 105.603 25.6211 105.877 24.5321C106.844 20.7741 109.575 18.0426 114.094 17.6444Z" fill="white"/>
<path d="M18.9178 40.8795L20.0864 34.7615H8.31148L12.5875 12.4346H5.4483L0 40.8795H18.9178Z" fill="white"/>
<path d="M28.391 40.8795L33.8289 12.4346H26.4953L21.248 40.8795H28.391Z" fill="white"/>
<path d="M64.4359 40.8795L69.8738 12.4346H62.5402L57.293 40.8795H64.4359Z" fill="white"/>
<path d="M91.5687 12.4346L88.2461 30.9815L80.4767 12.4346H72.3296L67.04 40.8795H73.9584L77.374 21.7596L85.1444 40.8795H93.1402L98.4467 12.4346H91.5687Z" fill="white"/>
<path d="M143.351 36.3966H132.66L133.787 30.5068H146.817L147.975 24.5254H127.826L122.426 53.0611H129.471L131.538 42.3321H142.229L143.351 36.3966Z" fill="#D85743"/>
<path d="M174.919 30.6444H183.873L185 24.5264H159.974L158.807 30.6444H167.798L163.477 53.062H170.625L174.919 30.6444Z" fill="#D85743"/>
<path d="M119.751 45.9004H113.58L112.265 53.0632H119.42L120.725 45.9004H119.751Z" fill="#D85743"/>
<path d="M150.421 24.5254L144.988 53.0611H152.127L157.565 24.5254H150.42H150.421Z" fill="#D85743"/>
<path d="M60.5408 12.4346L48.981 40.8795H40.9842L35.6777 12.4346H42.5557L45.8792 30.9815L53.6477 12.4346H60.5408Z" fill="white"/>
</svg>
