<svg width="185" height="54" viewBox="0 0 185 54" fill="none" xmlns="http://www.w3.org/2000/svg">
<path d="M114.094 17.6444C114.47 17.6113 114.86 17.5944 115.263 17.5938C117.646 17.5938 121.102 18.3177 123.683 19.2603L125.075 15.9721L130.477 3.18315C130.149 3.20703 127.984 3.36843 127.322 3.41618L126.374 3.4859C123.978 3.65781 120.695 3.88511 120.362 3.89848C119.61 3.38276 116.009 1.06965 115.425 0.734427C115.095 0.543418 114.102 0 114.102 0C114.102 0 113.11 0.545329 112.779 0.734427C112.196 1.06965 108.596 3.38276 107.842 3.89848C107.505 3.88511 104.223 3.65781 101.83 3.4859L100.882 3.41618C100.225 3.36843 98.0549 3.20703 97.7271 3.18315C98.2202 4.3292 99.4348 7.17714 100.244 9.07958L109.253 9.80541H109.294C109.294 9.80541 113.185 7.2459 114.106 6.6595C115.027 7.2459 118.918 9.80541 118.918 9.80541H118.959L118.995 9.82833L121.632 9.59817C121.326 10.3316 121.003 11.1033 120.693 11.8492C118.934 11.535 117.152 11.3797 115.366 11.385C114.94 11.385 114.521 11.3971 114.109 11.4213C109.477 11.6811 105.785 13.3763 103.132 15.9721C99.9383 19.098 98.2475 23.5274 98.2475 28.3237C98.2475 36.4511 104.401 41.2903 112.846 41.2903C113.261 41.2903 113.681 41.2794 114.104 41.2578C116.943 41.1174 119.915 40.5176 122.221 39.6524L125.1 24.5321H112.029L110.86 30.2853H117.509L116.57 34.8963C115.764 35.1355 114.936 35.2879 114.099 35.3509C113.723 35.3824 113.348 35.3986 112.977 35.3986C107.991 35.3986 105.43 32.3855 105.475 27.8652C105.469 26.7413 105.604 25.6211 105.878 24.5321C106.844 20.7741 109.575 18.0426 114.094 17.6444Z" fill="#162535"/>
<path d="M18.9178 40.8795L20.0864 34.7615H8.31148L12.5875 12.4346H5.4483L0 40.8795H18.9178Z" fill="#162535"/>
<path d="M28.3914 40.8795L33.8294 12.4346H26.4958L21.2485 40.8795H28.3914Z" fill="#162535"/>
<path d="M64.4359 40.8795L69.8738 12.4346H62.5402L57.293 40.8795H64.4359Z" fill="#162535"/>
<path d="M91.5692 12.4346L88.2466 30.9815L80.4772 12.4346H72.3301L67.0405 40.8795H73.9589L77.3745 21.7596L85.1449 40.8795H93.1407L98.4472 12.4346H91.5692Z" fill="#162535"/>
<path d="M143.351 36.3966H132.66L133.787 30.5068H146.817L147.975 24.5254H127.826L122.425 53.0611H129.471L131.537 42.3321H142.229L143.351 36.3966Z" fill="#D85743"/>
<path d="M174.919 30.6444H183.873L185 24.5264H159.975L158.807 30.6444H167.799L163.478 53.062H170.625L174.919 30.6444Z" fill="#D85743"/>
<path d="M119.752 45.9004H113.58L112.265 53.0632H119.42L120.726 45.9004H119.752Z" fill="#D85743"/>
<path d="M150.421 24.5254L144.989 53.0611H152.128L157.566 24.5254H150.42H150.421Z" fill="#D85743"/>
<path d="M60.5412 12.4346L48.9815 40.8795H40.9847L35.6782 12.4346H42.5562L45.8797 30.9815L53.6482 12.4346H60.5412Z" fill="#162535"/>
</svg>
